<?xml version="1.0" standalone="no"?>
<!DOCTYPE svg PUBLIC "-//W3C//DTD SVG 20010904//EN"
 "http://www.w3.org/TR/2001/REC-SVG-20010904/DTD/svg10.dtd">
<svg version="1.0" xmlns="http://www.w3.org/2000/svg"
 width="648.000000pt" height="648.000000pt" viewBox="0 0 648.000000 648.000000"
 preserveAspectRatio="xMidYMid meet">

<g transform="translate(0.000000,648.000000) scale(0.100000,-0.100000)"
fill="#000000" stroke="none">
<path d="M0 3240 l0 -3240 3240 0 3240 0 0 3240 0 3240 -3240 0 -3240 0 0
-3240z m3805 2518 c14 -6 25 -14 25 -17 0 -4 -28 -17 -62 -30 -35 -12 -71 -27
-81 -33 -11 -5 -21 -7 -24 -5 -10 10 28 67 55 81 33 19 53 19 87 4z m400 -28
c22 -11 31 -17 20 -14 -11 4 -58 9 -105 11 -76 4 -90 2 -134 -21 -45 -23 -50
-24 -72 -9 -13 8 -24 19 -24 24 0 16 66 27 170 28 86 0 112 -3 145 -19z m-471
-120 c-82 -36 -102 -101 -62 -197 18 -45 20 -58 10 -90 -14 -48 -63 -107 -104
-127 -17 -9 -33 -16 -35 -16 -2 0 17 19 42 43 38 37 45 49 45 83 0 21 -10 66
-22 99 -15 43 -19 71 -14 97 13 69 82 128 151 127 29 0 29 -1 -11 -19z m576
-73 c0 -2 -9 -22 -20 -45 -11 -22 -20 -54 -20 -69 -1 -27 -1 -27 -15 -9 -22
29 -18 76 7 103 18 19 48 32 48 20z m170 -264 c-1 -5 -7 -19 -15 -33 -43 -75
6 -229 78 -248 31 -8 32 -9 10 -20 -17 -10 -27 -10 -41 -1 -29 18 -82 101 -98
155 -18 58 -12 99 18 131 21 22 48 31 48 16z m90 -373 c0 -5 -4 -10 -10 -10
-22 0 -43 -67 -48 -153 -4 -82 -3 -89 18 -112 13 -14 19 -25 14 -25 -5 0 -19
-3 -30 -6 -18 -5 -24 0 -34 30 -17 53 -15 154 5 204 21 53 85 107 85 72z m-20
-380 c0 -5 -7 -10 -15 -10 -8 0 -32 -17 -55 -38 -42 -41 -53 -85 -28 -110 9
-9 7 -12 -10 -12 -12 0 -25 -1 -29 -2 -10 -4 -4 68 8 100 15 39 67 82 100 82
16 0 29 -4 29 -10z m-66 -236 c26 -10 18 -24 -13 -24 -29 0 -55 -17 -64 -42
-4 -10 -7 -10 -18 0 -12 11 -9 18 19 43 33 29 48 34 76 23z m-127 -86 l28 -11
-33 -6 c-23 -4 -39 -16 -53 -38 l-21 -33 28 0 c26 0 27 0 9 -20 -12 -13 -31
-20 -55 -20 -34 0 -60 -14 -60 -32 0 -4 17 -16 38 -27 44 -23 116 -77 87 -66
-47 18 -103 36 -143 46 -54 13 -75 48 -47 79 10 11 25 20 34 20 26 0 59 28 76
64 24 50 62 65 112 44z m-237 -253 l35 -13 -40 -1 c-74 -2 -138 -60 -117 -106
9 -20 7 -23 -16 -29 -15 -3 -36 -13 -47 -22 -19 -15 -20 -16 -1 -27 60 -37
110 -75 114 -85 2 -7 -29 5 -70 25 -40 20 -84 41 -98 47 -39 18 -37 50 5 75
23 13 42 36 54 64 35 81 96 105 181 72z m-560 -178 c0 -12 -96 -85 -167 -127
-35 -21 -99 -102 -109 -137 -4 -13 -14 -23 -24 -23 -27 0 -34 17 -11 29 10 6
42 42 71 81 58 78 136 152 189 180 37 19 51 18 51 -3z m15 -107 c-9 -18 -48
-66 -87 -108 -64 -68 -118 -155 -118 -189 0 -7 -5 -13 -11 -13 -40 0 48 162
145 268 35 38 68 80 72 93 8 24 8 24 12 2 2 -12 -4 -36 -13 -53z m274 49 c43
-15 39 -29 -9 -29 -40 0 -80 -26 -80 -52 0 -7 -11 -26 -25 -43 l-24 -30 62
-56 c64 -58 74 -91 15 -46 -18 14 -61 39 -96 56 -52 26 -63 36 -60 54 2 14 14
24 36 31 26 7 39 20 54 51 19 39 59 74 84 75 6 0 25 -5 43 -11z m-873 -117
c14 -10 19 -196 5 -187 -6 3 -11 27 -11 53 0 28 -8 62 -20 85 -11 21 -18 42
-15 47 7 12 26 13 41 2z m-59 -73 c-8 -13 -24 -57 -36 -97 -22 -73 -36 -90
-68 -78 -15 6 -14 9 7 19 17 9 29 31 45 82 27 89 44 120 57 107 7 -7 5 -18 -5
-33z m725 -35 c35 -18 44 -34 20 -34 -11 0 -32 -16 -46 -35 -15 -19 -35 -35
-45 -35 -9 0 -26 -7 -37 -15 -19 -15 -19 -15 2 -33 59 -48 70 -59 88 -80 28
-32 13 -38 -26 -9 -18 13 -54 32 -80 42 -54 20 -91 55 -86 82 1 10 23 27 47
39 24 12 48 30 53 40 37 70 43 72 110 38z m763 -107 c-71 -56 -153 -144 -177
-188 -22 -42 -23 -43 -26 -17 -3 25 23 85 50 118 17 20 108 94 133 108 11 6
29 11 40 11 16 0 12 -7 -20 -32z m183 -6 c71 -35 180 -117 169 -128 -2 -2 -52
19 -110 47 -102 49 -167 92 -167 111 0 17 25 9 108 -30z m-1818 -206 c0 -81
-3 -106 -11 -98 -13 13 -25 193 -15 220 15 38 26 -13 26 -122z m675 99 c55
-27 112 -70 104 -78 -3 -3 -34 4 -70 15 -79 25 -163 28 -204 6 -16 -8 -45 -31
-63 -50 -33 -34 -34 -35 -120 -34 -70 0 -96 -4 -133 -22 -56 -27 -109 -77
-109 -102 0 -14 -7 -19 -30 -19 -18 0 -33 6 -37 15 -12 34 71 92 234 164 59
26 135 65 167 86 32 20 71 41 85 46 40 13 121 1 176 -27z m-735 18 c0 -5 -11
-14 -25 -20 -14 -6 -25 -16 -25 -22 0 -16 -59 -133 -75 -149 -30 -31 30 121
63 160 31 36 62 51 62 31z m-603 -188 c13 -20 14 -30 6 -43 -6 -9 -17 -14 -25
-12 -7 2 -60 5 -118 8 -94 5 -112 3 -172 -20 -118 -43 -258 -143 -258 -183 0
-8 -4 -14 -9 -14 -11 0 -41 45 -41 63 0 23 81 96 145 132 124 70 210 92 362
94 89 1 93 0 110 -25z m399 -21 c35 -28 64 -71 64 -95 0 -7 -18 8 -40 34 -22
26 -56 56 -75 68 -19 12 -35 26 -35 31 0 13 46 -7 86 -38z m-141 27 c33 -12
155 -128 155 -146 0 -7 -9 -18 -19 -23 -14 -8 -25 -6 -42 8 -45 34 -113 63
-157 66 -24 2 -46 5 -48 8 -7 7 25 80 39 89 17 11 41 10 72 -2z m1799 -17 c-9
-38 -13 -43 -29 -43 -44 0 -133 -47 -181 -95 -47 -47 -53 -50 -58 -31 -10 40
77 120 184 169 79 35 92 35 84 0z m174 -51 c35 -45 56 -82 45 -82 -20 0 -112
61 -127 85 -43 66 30 63 82 -3z m-1160 5 c20 -16 14 -27 -16 -27 -53 0 -122
-28 -171 -69 -52 -44 -83 -47 -73 -8 13 55 67 101 137 117 35 9 105 1 123 -13z
m-401 -97 c-15 -25 -27 -15 -27 22 0 30 1 31 19 14 16 -15 18 -22 8 -36z m-76
30 c24 -13 25 -29 2 -25 -10 2 -35 7 -56 10 -21 3 -35 10 -32 16 8 12 61 12
86 -1z m-61 -98 c0 -5 -13 -9 -28 -9 -38 0 -77 -29 -101 -77 -15 -30 -22 -36
-26 -24 -9 22 25 95 66 142 l33 38 28 -31 c15 -17 28 -35 28 -39z m255 -30
c-16 -2 -36 -8 -42 -14 -10 -8 -13 -4 -13 14 0 41 19 50 54 25 l31 -22 -30 -3z
m-1407 -5 c18 -37 9 -48 -28 -35 -56 19 -153 -45 -273 -180 -21 -24 -40 -42
-43 -40 -2 3 11 27 29 55 114 180 276 283 315 200z m1292 25 c0 -11 -37 -32
-44 -25 -8 9 14 33 30 33 8 0 14 -3 14 -8z m1021 -21 c-31 -43 -79 -81 -136
-107 -91 -43 -129 -22 -57 32 49 38 172 103 195 104 17 0 17 -2 -2 -29z m116
-8 c39 -38 87 -102 80 -109 -7 -7 -67 23 -95 50 -28 25 -54 71 -45 80 13 12
31 5 60 -21z m-1563 -14 c-3 -5 -11 -9 -17 -9 -17 0 -55 -60 -63 -98 -9 -43
-20 -50 -95 -57 -49 -5 -61 -3 -52 6 6 6 32 14 57 16 25 3 46 10 46 15 0 11
55 94 83 125 18 20 54 22 41 2z m337 -37 c-5 -10 -19 -26 -31 -37 -13 -11 -33
-42 -45 -68 -26 -55 -41 -48 -26 11 12 43 84 128 100 117 7 -4 8 -12 2 -23z
m67 -41 c4 -29 -27 -159 -40 -167 -18 -11 -18 3 -3 67 8 35 15 67 15 72 0 16
-16 5 -35 -23 -25 -37 -38 -39 -25 -4 29 75 81 107 88 55z m282 -9 c-58 -45
-88 -81 -101 -120 -15 -48 -23 -55 -48 -47 -27 8 -27 25 -1 25 16 0 19 5 14
29 -5 22 1 36 27 66 33 37 98 75 129 74 9 0 0 -11 -20 -27z m-105 -1 c0 -14
-106 -103 -113 -96 -9 8 12 49 40 81 32 36 73 44 73 15z m310 -10 c16 -7 14
-9 -14 -14 -19 -4 -49 -7 -68 -7 -42 0 -101 -24 -109 -45 -4 -9 2 -25 12 -37
l19 -21 -49 7 c-27 3 -52 8 -55 11 -10 11 33 75 63 95 24 15 48 20 106 19 41
0 84 -4 95 -8z m-1765 -39 c-57 -44 -99 -94 -132 -155 -33 -60 -102 -146 -111
-137 -3 3 12 32 34 65 21 33 39 63 39 68 0 5 7 15 15 23 8 9 15 24 15 34 0 10
5 22 11 25 5 4 14 17 18 29 5 11 33 34 62 49 69 35 95 35 49 -1z m2114 -81 c3
-5 -18 -21 -48 -35 -65 -32 -136 -93 -176 -151 -29 -42 -32 -43 -62 -34 -18 5
-61 9 -95 9 -35 0 -63 2 -63 5 0 4 7 19 14 34 34 65 138 129 266 162 72 19
156 24 164 10z m-314 -246 c57 -8 104 -37 120 -75 7 -17 11 -33 8 -35 -3 -3
-32 7 -64 22 -51 24 -71 28 -149 27 -113 -1 -229 -32 -319 -84 -74 -44 -75
-30 -1 31 56 46 117 79 190 102 80 26 103 27 215 12z m80 -321 c0 -3 -11 -15
-25 -26 -14 -11 -25 -24 -25 -29 0 -19 -79 -116 -120 -149 -47 -37 -203 -120
-226 -120 -10 0 -5 9 14 25 17 14 36 25 45 25 8 0 32 12 53 26 21 15 51 31 67
36 15 6 35 24 44 42 8 17 33 47 54 67 32 29 39 43 39 72 0 36 1 37 40 37 22 0
40 -3 40 -6z m-1906 -100 c15 -21 45 -52 67 -69 23 -16 52 -40 65 -52 32 -29
32 -76 0 -108 -51 -51 -120 -43 -170 19 -30 36 -31 41 -31 134 0 62 5 109 14
131 15 34 15 34 22 10 3 -14 18 -43 33 -65z m3517 29 c20 -72 18 -161 -6 -208
-23 -45 -76 -85 -114 -85 -41 0 -88 34 -96 69 -10 47 1 65 60 105 60 40 110
101 120 147 9 38 19 30 36 -28z m-2830 -155 c349 -247 822 -366 1267 -317 282
30 602 153 848 325 113 79 109 62 -7 -32 -451 -362 -1046 -465 -1608 -278
-201 67 -385 170 -542 304 -103 88 -168 162 -78 89 30 -25 84 -66 120 -91z
m2804 -489 c-225 -229 -570 -447 -889 -561 -303 -108 -537 -148 -868 -148
-635 -1 -1218 226 -1698 660 -84 77 -94 103 -13 33 306 -262 696 -461 1101
-563 151 -38 331 -61 527 -66 678 -21 1352 223 1850 669 61 55 56 44 -10 -24z"/>
</g>
</svg>
